<?xml version="1.0" encoding="UTF-8" standalone="no"?>
<!-- Created with Inkscape (http://www.inkscape.org/) -->

<svg
     xmlns:dc="http://purl.org/dc/elements/1.1/"
     xmlns:cc="http://creativecommons.org/ns#"
     xmlns:rdf="http://www.w3.org/1999/02/22-rdf-syntax-ns#"
     xmlns:svg="http://www.w3.org/2000/svg"
     xmlns="http://www.w3.org/2000/svg"
     xmlns:sodipodi="http://sodipodi.sourceforge.net/DTD/sodipodi-0.dtd"
     xmlns:inkscape="http://www.inkscape.org/namespaces/inkscape"
     width="1000"
     height="1000"
     viewBox="0 0 264.58333 264.58334"
     version="1.1"
     id="svg8"
     inkscape:version="0.92.3 (2405546, 2018-03-11)"
     sodipodi:docname="icons_files_200x200.svg">
    <defs
         id="defs2" />
    <sodipodi:namedview
         id="base"
         pagecolor="#008000"
         bordercolor="#666666"
         borderopacity="1.0"
         inkscape:pageopacity="0"
         inkscape:pageshadow="2"
         inkscape:zoom="0.33333333"
         inkscape:cx="363.25659"
         inkscape:cy="754.96218"
         inkscape:document-units="px"
         inkscape:current-layer="layer1"
         showgrid="true"
         inkscape:window-width="1366"
         inkscape:window-height="705"
         inkscape:window-x="-8"
         inkscape:window-y="-8"
         inkscape:window-maximized="1"
         units="mm"
         inkscape:pagecheckerboard="true"
         showguides="false">
        <inkscape:grid
             type="xygrid"
             id="grid815"
             spacingx="0.26458333"
             spacingy="0.26458333"
             empspacing="10"
             color="black"
             opacity="0.1254902"
             empcolor="black"
             empopacity="0.25098039"
             dotted="true" />
        <inkscape:grid
             type="xygrid"
             id="grid2233"
             spacingx="52.916667"
             spacingy="52.916667"
             color="red"
             opacity="0.45098039"
             empcolor="red"
             empopacity="1" />
    </sodipodi:namedview>
    <metadata
         id="metadata5">
        <rdf:RDF>
            <cc:Work
                 rdf:about="">
                <dc:format>image/svg+xml</dc:format>
                <dc:type
                     rdf:resource="http://purl.org/dc/dcmitype/StillImage" />
                <dc:title></dc:title>
            </cc:Work>
        </rdf:RDF>
    </metadata>
    <g
         inkscape:label="Camada 1"
         inkscape:groupmode="layer"
         id="layer1"
         transform="translate(0,-32.41664)">
        <path
             sodipodi:nodetypes="cccscccccccc"
             inkscape:connector-curvature="0"
             id="path2680"
             d="M 202.14169,212.33349 202.14168,211.27505 C 202.14168,209.68753 200.55418,208.10005 198.96668,208.10005 H 189.44167 C 188.91251,208.10005 187.85417,207.57089 187.32501,207.04173 L 184.15001,202.80833 C 183.62083,202.27913 182.56251,201.74997 182.03334,201.74997 H 167.21669 C 165.62919,201.74997 164.04169,203.33749 164.04169,204.92497 V 230.32497 C 164.04169,231.91249 165.62919,233.49997 167.21669,233.49997 H 171.45002"
             style="fill:#fd5;stroke:none;stroke-width:2.11666656;stroke-linecap:butt;stroke-linejoin:miter;stroke-miterlimit:4;stroke-dasharray:none;stroke-opacity:1" />
        <path
             style="fill:#d4aa00;stroke:none;stroke-width:2.11666656;stroke-linecap:butt;stroke-linejoin:miter;stroke-miterlimit:4;stroke-dasharray:none;stroke-opacity:1"
             d="M 176.7418,212.33345 C 174.62513,212.30145 172.67218,213.39181 171.45013,215.50845 L 165.10013,228.20829 C 163.57249,230.85425 165.10015,233.49997 168.27513,233.49997 H 197.90847 C 200.55431,233.49997 202.28352,231.91257 203.20014,230.32497 L 209.55014,217.62505 C 211.13765,214.87541 209.55015,212.33337 206.37514,212.33337 Z"
             id="path2682"
             inkscape:connector-curvature="0"
             sodipodi:nodetypes="ccccccccc" />
        <path
             style="fill:white;stroke:none;stroke-width:2.11666656;stroke-linecap:butt;stroke-linejoin:miter;stroke-miterlimit:4;stroke-dasharray:none;stroke-opacity:1"
             d="M 116.41667,238.79161 V 196.45829 H 135.46667 L 148.16669,209.15829 V 238.79161 Z"
             id="path2684"
             inkscape:connector-curvature="0"
             sodipodi:nodetypes="cccccc" />
        <path
             style="fill:#ccc;stroke:none;stroke-width:2.11666656;stroke-linecap:butt;stroke-linejoin:miter;stroke-miterlimit:4;stroke-dasharray:none;stroke-opacity:1"
             d="M 135.46667,196.45829 V 209.15829 H 148.16669 Z"
             id="path2686"
             inkscape:connector-curvature="0"
             sodipodi:nodetypes="cccc" />
        <path
             style="fill:#a05a2c;stroke:none;stroke-width:1.05833328px;stroke-linecap:butt;stroke-linejoin:miter;stroke-opacity:1"
             d="M 10.583332,212.33331 3.175,203.86663 19.05,193.28331 26.458332,201.74999 Z"
             id="path2726"
             inkscape:connector-curvature="0" />
        <path
             style="fill:#c87137;stroke:none;stroke-width:1.05833328px;stroke-linecap:butt;stroke-linejoin:miter;stroke-opacity:1"
             d="M 26.458332,201.74999 33.866668,193.28331 49.741668,203.86663 42.333332,212.33331 Z"
             id="path2728"
             inkscape:connector-curvature="0" />
        <path
             style="fill:#784421;stroke:none;stroke-width:1.05833328px;stroke-linecap:butt;stroke-linejoin:miter;stroke-opacity:1"
             d="M 10.583332,212.33331 26.458332,201.74999 V 217.62499 L 10.583332,228.20831 Z"
             id="path2730"
             inkscape:connector-curvature="0" />
        <path
             style="fill:#a05a2c;stroke:none;stroke-width:1.05833328px;stroke-linecap:butt;stroke-linejoin:miter;stroke-opacity:1"
             d="M 26.458332,201.74999 V 217.62499 L 42.333332,228.20831 V 212.33331 Z"
             id="path2732"
             inkscape:connector-curvature="0" />
        <path
             style="fill:#a05a2c;stroke:none;stroke-width:1.05833328px;stroke-linecap:butt;stroke-linejoin:miter;stroke-opacity:1"
             d="M 10.583332,228.20831 26.458332,217.62499 42.333332,228.20831 26.458332,238.79163 Z"
             id="path2734"
             inkscape:connector-curvature="0" />
        <path
             style="fill:#a05a2c;stroke:none;stroke-width:1.05833328px;stroke-linecap:butt;stroke-linejoin:miter;stroke-opacity:1"
             d="M 10.583332,212.33331 26.458332,222.91663 V 238.79163 L 10.583332,228.20831 Z"
             id="path2736"
             inkscape:connector-curvature="0" />
        <path
             style="fill:#784421;stroke:none;stroke-width:1.05833328px;stroke-linecap:butt;stroke-linejoin:miter;stroke-opacity:1"
             d="M 26.458332,222.91663 42.333336,212.33331 V 228.20831 L 26.458332,238.79163 Z"
             id="path2738"
             inkscape:connector-curvature="0" />
        <path
             style="fill:#a05a2c;stroke:none;stroke-width:1.05833328px;stroke-linecap:butt;stroke-linejoin:miter;stroke-opacity:1"
             d="M 31.75,233.49999 26.458332,222.91663 42.333332,212.33331 47.625,222.91663 Z"
             id="path2722"
             inkscape:connector-curvature="0" />
        <path
             style="fill:#c87137;stroke:none;stroke-width:1.05833328px;stroke-linecap:butt;stroke-linejoin:miter;stroke-opacity:1"
             d="M 5.291664,222.91663 21.166668,233.49999 26.458332,222.91663 10.583332,212.33331 Z"
             id="path2724"
             inkscape:connector-curvature="0" />
        <path
             inkscape:connector-curvature="0"
             id="path2751"
             d="M 63.499996,212.33331 79.374996,222.91663 95.249996,212.33331 79.374996,201.74999 Z"
             style="fill:#c87137;stroke:none;stroke-width:1.05833328px;stroke-linecap:butt;stroke-linejoin:miter;stroke-opacity:1" />
        <path
             inkscape:connector-curvature="0"
             id="path2753"
             d="M 63.499996,212.33331 V 228.20831 L 79.374996,238.79163 V 222.91663 Z"
             style="fill:#a05a2c;stroke:none;stroke-width:1.05833328px;stroke-linecap:butt;stroke-linejoin:miter;stroke-opacity:1" />
        <path
             inkscape:connector-curvature="0"
             id="path2755"
             d="M 79.374996,222.91663 V 238.79163 L 95.249996,228.20831 V 212.33331 Z"
             style="fill:#784421;stroke:none;stroke-width:1.05833328px;stroke-linecap:butt;stroke-linejoin:miter;stroke-opacity:1" />
        <path
             inkscape:connector-curvature="0"
             id="path2759"
             d="M 71.437496,207.04163 87.312496,217.62499"
             style="fill:none;stroke:#784421;stroke-width:1.05833328;stroke-linecap:butt;stroke-linejoin:miter;stroke-miterlimit:4;stroke-dasharray:none;stroke-opacity:1" />
        <path
             style="fill:#fd5;stroke:none;stroke-width:2.11666656;stroke-linecap:butt;stroke-linejoin:miter;stroke-miterlimit:4;stroke-dasharray:none;stroke-opacity:1"
             d="M 220.13339,201.74993 C 218.54589,201.74993 216.95839,203.33745 216.95839,204.92493 V 230.32493 C 216.95839,231.91245 218.54589,233.49993 220.13339,233.49993 H 251.88339 C 253.47089,233.49993 255.05839,231.91245 255.05839,230.32493 V 211.27489 C 255.05839,209.68737 253.47089,208.09989 251.88339,208.09989 H 242.35837 C 241.82922,208.09989 240.77089,207.57073 240.24171,207.04157 L 237.06672,202.80829 C 236.53753,202.27909 235.47922,201.74993 234.95005,201.74993 Z"
             id="path2676"
             inkscape:connector-curvature="0"
             sodipodi:nodetypes="ccccccccscccc" />
        <path
             style="fill:#fc0;stroke:none;stroke-width:2.11666656;stroke-linecap:butt;stroke-linejoin:miter;stroke-miterlimit:4;stroke-dasharray:none;stroke-opacity:1"
             d="M 216.95839,213.39157 V 211.27489 C 216.95839,209.68737 218.54589,208.09989 220.13339,208.09989 H 251.88339 C 253.47089,208.09989 255.05839,209.68737 255.05839,211.27489 V 230.32493 C 255.05839,231.91245 253.47089,233.49993 251.88339,233.49993 H 220.13339 C 218.54589,233.49993 216.95839,231.91245 216.95839,230.32493 Z"
             id="path2678"
             inkscape:connector-curvature="0"
             sodipodi:nodetypes="cccccccccc" />
        <g
             id="g2727">
            <path
                 style="fill:white;stroke:none;stroke-width:2.11666656;stroke-linecap:butt;stroke-linejoin:miter;stroke-miterlimit:4;stroke-dasharray:none;stroke-opacity:1"
                 d="M 10.583291,80.041582 V 37.708286 H 29.633282 L 42.333273,50.40828 V 80.041582 Z"
                 id="path2813"
                 inkscape:connector-curvature="0"
                 sodipodi:nodetypes="cccccc" />
            <path
                 sodipodi:nodetypes="ccc"
                 inkscape:connector-curvature="0"
                 id="path2795"
                 d="M 14.552041,46.968683 17.197868,49.61452 22.489535,44.322843"
                 style="fill:none;stroke:#00d400;stroke-width:1.58749998;stroke-linecap:butt;stroke-linejoin:miter;stroke-miterlimit:4;stroke-dasharray:none;stroke-opacity:1" />
            <path
                 sodipodi:nodetypes="ccc"
                 inkscape:connector-curvature="0"
                 id="path2797"
                 d="M 14.552041,54.906157 17.197868,57.551997 22.489535,52.26036"
                 style="fill:none;stroke:#00d400;stroke-width:1.58749998;stroke-linecap:butt;stroke-linejoin:miter;stroke-miterlimit:4;stroke-dasharray:none;stroke-opacity:1" />
            <path
                 sodipodi:nodetypes="ccc"
                 inkscape:connector-curvature="0"
                 id="path2799"
                 d="M 14.552041,62.843674 17.197868,65.489471 22.489535,60.197834"
                 style="fill:none;stroke:#00d400;stroke-width:1.58749998;stroke-linecap:butt;stroke-linejoin:miter;stroke-miterlimit:4;stroke-dasharray:none;stroke-opacity:1" />
            <path
                 sodipodi:nodetypes="cc"
                 inkscape:connector-curvature="0"
                 id="path2801"
                 d="M 14.552041,68.135341 19.843698,73.427018"
                 style="fill:none;stroke:#d40000;stroke-width:1.58749998;stroke-linecap:butt;stroke-linejoin:miter;stroke-miterlimit:4;stroke-dasharray:none;stroke-opacity:1" />
            <path
                 sodipodi:nodetypes="cc"
                 inkscape:connector-curvature="0"
                 id="path2803"
                 d="M 14.552041,73.427018 19.843698,68.135341"
                 style="fill:none;stroke:#d40000;stroke-width:1.58749998;stroke-linecap:butt;stroke-linejoin:miter;stroke-miterlimit:4;stroke-dasharray:none;stroke-opacity:1" />
            <path
                 sodipodi:nodetypes="cc"
                 inkscape:connector-curvature="0"
                 id="path2805"
                 d="M 25.135375,46.968683 H 35.718699"
                 style="fill:none;stroke:#999;stroke-width:1.58749998;stroke-linecap:butt;stroke-linejoin:miter;stroke-miterlimit:4;stroke-dasharray:none;stroke-opacity:1" />
            <path
                 sodipodi:nodetypes="cc"
                 inkscape:connector-curvature="0"
                 id="path2807"
                 d="M 25.135375,54.906157 H 35.718699"
                 style="fill:none;stroke:#999;stroke-width:1.58749998;stroke-linecap:butt;stroke-linejoin:miter;stroke-miterlimit:4;stroke-dasharray:none;stroke-opacity:1" />
            <path
                 sodipodi:nodetypes="cc"
                 inkscape:connector-curvature="0"
                 id="path2809"
                 d="M 25.135375,62.843674 H 35.718699"
                 style="fill:none;stroke:#999;stroke-width:1.58749998;stroke-linecap:butt;stroke-linejoin:miter;stroke-miterlimit:4;stroke-dasharray:none;stroke-opacity:1" />
            <path
                 sodipodi:nodetypes="cc"
                 inkscape:connector-curvature="0"
                 id="path2811"
                 d="M 22.489535,70.781178 H 35.718699"
                 style="fill:none;stroke:#999;stroke-width:1.58749998;stroke-linecap:butt;stroke-linejoin:miter;stroke-miterlimit:4;stroke-dasharray:none;stroke-opacity:1" />
            <path
                 style="fill:#ccc;stroke:none;stroke-width:2.11666656;stroke-linecap:butt;stroke-linejoin:miter;stroke-miterlimit:4;stroke-dasharray:none;stroke-opacity:1"
                 d="M 29.633282,37.708286 V 50.40828 H 42.333273 Z"
                 id="path2815"
                 inkscape:connector-curvature="0"
                 sodipodi:nodetypes="cccc" />
        </g>
        <path
             sodipodi:nodetypes="cccccc"
             inkscape:connector-curvature="0"
             id="path2817"
             d="M 222.25003,80.041662 V 37.70836 H 241.30002 L 254.00003,50.40836 V 80.041662 Z"
             style="fill:white;stroke:none;stroke-width:2.11666679;stroke-linecap:butt;stroke-linejoin:miter;stroke-miterlimit:4;stroke-dasharray:none;stroke-opacity:1" />
        <path
             sodipodi:nodetypes="ccc"
             inkscape:connector-curvature="0"
             id="path2819"
             d="M 241.30002,37.70836 V 50.40836 H 254.00003"
             style="fill:#ccc;stroke:none;stroke-width:2.11666679;stroke-linecap:butt;stroke-linejoin:miter;stroke-miterlimit:4;stroke-dasharray:none;stroke-opacity:1" />
        <g
             id="g2668">
            <path
                 style="fill:#e6e6e6;stroke:none;stroke-width:1.05833328px;stroke-linecap:butt;stroke-linejoin:miter;stroke-opacity:1"
                 d="M 236.00837,53.054107 233.8917,51.99579 C 232.83338,51.38459 232.83338,52.830467 232.30421,52.524947 L 231.24587,51.99579 V 52.524947 L 232.30421,53.054107 C 233.22051,53.583267 232.97519,51.99579 233.8917,52.524947 L 236.00837,53.583267 Z"
                 id="path3093"
                 inkscape:connector-curvature="0"
                 sodipodi:nodetypes="ccccccccc" />
            <path
                 style="fill:#b3b3b3;stroke:none;stroke-width:1.05833328px;stroke-linecap:butt;stroke-linejoin:miter;stroke-opacity:1"
                 d="M 231.24587,51.99579 232.83338,50.40827 233.89171,50.93747 C 234.42088,51.24307 234.56263,49.87911 235.47922,50.40831 L 237.59588,51.46663 236.00837,53.054107 233.8917,51.99579 C 232.83338,51.38475 232.83338,52.830467 232.30421,52.524947 Z"
                 id="path3095"
                 inkscape:connector-curvature="0"
                 sodipodi:nodetypes="ccccccccc" />
            <path
                 sodipodi:nodetypes="ccccccccc"
                 inkscape:connector-curvature="0"
                 id="path3087"
                 d="M 233.36254,55.699947 231.24587,54.641627 C 230.18755,54.030427 230.18755,55.476307 229.65838,55.170787 L 228.60004,54.641627 V 55.170787 L 229.65838,55.699947 C 230.57468,56.229107 230.32936,54.641627 231.24587,55.170787 L 233.36254,56.229107 Z"
                 style="fill:#e6e6e6;stroke:none;stroke-width:1.05833328px;stroke-linecap:butt;stroke-linejoin:miter;stroke-opacity:1" />
            <path
                 sodipodi:nodetypes="ccccccccc"
                 inkscape:connector-curvature="0"
                 id="path3089"
                 d="M 228.60004,54.641627 230.18755,53.054107 231.24588,53.583307 C 231.77505,53.888907 231.9168,52.524947 232.83339,53.054147 L 234.95005,54.112467 233.36254,55.699947 231.24587,54.641627 C 230.18755,54.030587 230.18755,55.476307 229.65838,55.170787 Z"
                 style="fill:#b3b3b3;stroke:none;stroke-width:1.05833328px;stroke-linecap:butt;stroke-linejoin:miter;stroke-opacity:1" />
            <path
                 style="fill:#e6e6e6;stroke:none;stroke-width:1.05833328px;stroke-linecap:butt;stroke-linejoin:miter;stroke-opacity:1"
                 d="M 230.7167,58.345784 228.60004,57.287467 C 227.54171,56.676267 227.54171,58.122144 227.01254,57.816624 L 225.9542,57.287467 V 57.816624 L 227.01254,58.345784 C 227.92885,58.874944 227.68352,57.287467 228.60004,57.816624 L 230.7167,58.874944 Z"
                 id="path3081"
                 inkscape:connector-curvature="0"
                 sodipodi:nodetypes="ccccccccc" />
            <path
                 style="fill:#b3b3b3;stroke:none;stroke-width:1.05833328px;stroke-linecap:butt;stroke-linejoin:miter;stroke-opacity:1"
                 d="M 225.9542,57.287467 227.54171,55.699947 228.60004,56.229147 C 229.12921,56.534747 229.27096,55.170787 230.18755,55.699987 L 232.30421,56.758307 230.7167,58.345784 228.60004,57.287467 C 227.54171,56.676427 227.54171,58.122144 227.01254,57.816624 Z"
                 id="path3083"
                 inkscape:connector-curvature="0"
                 sodipodi:nodetypes="ccccccccc" />
            <path
                 sodipodi:nodetypes="ccccccccc"
                 inkscape:connector-curvature="0"
                 id="path3073"
                 d="M 228.07086,60.991614 225.9542,59.933294 C 224.89587,59.322094 224.89587,60.767974 224.3667,60.462454 L 223.30836,59.933294 V 60.462454 L 224.3667,60.991614 C 225.28301,61.520774 225.03768,59.933294 225.9542,60.462454 L 228.07086,61.520774 Z"
                 style="fill:#e6e6e6;stroke:none;stroke-width:1.05833328px;stroke-linecap:butt;stroke-linejoin:miter;stroke-opacity:1" />
            <path
                 sodipodi:nodetypes="ccccccccc"
                 inkscape:connector-curvature="0"
                 id="path3075"
                 d="M 223.30836,59.933294 224.89587,58.345774 225.9542,58.874974 C 226.48337,59.180574 226.62512,57.816614 227.54171,58.345814 L 229.65837,59.404134 228.07086,60.991614 225.9542,59.933294 C 224.89587,59.322254 224.89587,60.767974 224.3667,60.462454 Z"
                 style="fill:#b3b3b3;stroke:none;stroke-width:1.05833328px;stroke-linecap:butt;stroke-linejoin:miter;stroke-opacity:1" />
            <path
                 sodipodi:nodetypes="ccccc"
                 inkscape:connector-curvature="0"
                 id="path2821"
                 d="M 227.5417,59.933334 237.0667,64.695851 247.65003,54.112497 238.12503,49.35002 Z"
                 style="fill:#666;stroke:none;stroke-width:1.05833328px;stroke-linecap:butt;stroke-linejoin:miter;stroke-opacity:1" />
            <path
                 sodipodi:nodetypes="cccccc"
                 inkscape:connector-curvature="0"
                 id="path2823"
                 d="M 227.54169,59.933334 227.5417,63.108331 238.12503,68.400008 V 66.283331 L 237.0667,64.695811 Z"
                 style="fill:#666;stroke:none;stroke-width:1.05833328px;stroke-linecap:butt;stroke-linejoin:miter;stroke-opacity:1" />
            <path
                 inkscape:connector-curvature="0"
                 id="path2916"
                 d="M 237.0667,64.695811 238.12503,66.283331 248.70836,55.700017 247.65003,54.112497 Z"
                 style="fill:#333;stroke:none;stroke-width:1.05833328px;stroke-linecap:butt;stroke-linejoin:miter;stroke-opacity:1" />
            <path
                 sodipodi:nodetypes="ccccc"
                 inkscape:connector-curvature="0"
                 id="path2825"
                 d="M 248.70836,55.700017 V 57.816654 L 238.12503,68.400008 238.12504,66.283291 Z"
                 style="fill:#1a1a1a;stroke:none;stroke-width:1.05833328px;stroke-linecap:butt;stroke-linejoin:miter;stroke-opacity:1" />
            <path
                 style="fill:#b3b3b3;stroke:none;stroke-width:1.05833328px;stroke-linecap:butt;stroke-linejoin:miter;stroke-opacity:1"
                 d="M 240.24168,64.695801 238.65418,66.283301 V 66.812461 L 240.77085,67.870801 C 241.30002,68.176401 241.30002,68.847298 242.35835,69.458298 L 243.41668,69.987458 245.00418,68.399958 V 67.870801 L 243.94585,67.341631 C 243.02932,66.812471 243.27488,66.283291 242.35835,65.754131 Z"
                 id="path2827"
                 inkscape:connector-curvature="0" />
            <path
                 inkscape:connector-curvature="0"
                 id="path2839"
                 d="M 243.63373,67.124581 242.04623,68.712098 C 242.13383,68.784098 242.23343,68.856898 242.35835,68.929298 L 243.41668,69.458458 245.00418,67.870941 243.94585,67.341781 C 243.82093,67.269781 243.72137,67.196981 243.63373,67.124581 Z"
                 style="fill:#e6e6e6;stroke:none;stroke-width:1.05833328px;stroke-linecap:butt;stroke-linejoin:miter;stroke-opacity:1" />
            <path
                 style="fill:#e6e6e6;stroke:none;stroke-width:1.05833328px;stroke-linecap:butt;stroke-linejoin:miter;stroke-opacity:1"
                 d="M 238.6542,66.812461 240.77087,67.870781 C 241.30004,68.176381 241.30004,68.847298 242.35837,69.458298 L 243.4167,69.987458 V 69.458298 L 242.35837,68.929138 C 241.44181,68.399978 241.68743,67.870781 240.77087,67.341621 L 238.6542,66.283301 Z"
                 id="path2918"
                 inkscape:connector-curvature="0"
                 sodipodi:nodetypes="ccccccccc" />
            <path
                 inkscape:connector-curvature="0"
                 id="path2926"
                 d="M 242.88752,62.049954 241.30002,63.637451 V 64.166611 L 243.41669,65.224951 C 243.94586,65.530551 243.94586,66.201451 245.00419,66.812451 L 246.06252,67.341611 247.65002,65.754111 V 65.224951 L 246.59169,64.695781 C 245.67516,64.166621 245.92072,63.637441 245.00419,63.108281 Z"
                 style="fill:#b3b3b3;stroke:none;stroke-width:1.05833328px;stroke-linecap:butt;stroke-linejoin:miter;stroke-opacity:1" />
            <path
                 style="fill:#e6e6e6;stroke:none;stroke-width:1.05833328px;stroke-linecap:butt;stroke-linejoin:miter;stroke-opacity:1"
                 d="M 246.27957,64.478731 244.69207,66.066251 C 244.77967,66.138251 244.87927,66.211051 245.00419,66.283451 L 246.06252,66.812611 247.65002,65.225091 246.59169,64.695931 C 246.46677,64.623931 246.36721,64.551131 246.27957,64.478731 Z"
                 id="path2930"
                 inkscape:connector-curvature="0" />
            <path
                 sodipodi:nodetypes="ccccccccc"
                 inkscape:connector-curvature="0"
                 id="path2932"
                 d="M 241.30004,64.166611 243.41671,65.224931 C 243.94588,65.530531 243.94588,66.201451 245.00421,66.812451 L 246.06254,67.341611 V 66.812451 L 245.00421,66.283291 C 244.08765,65.754131 244.33327,65.224931 243.41671,64.695771 L 241.30004,63.637451 Z"
                 style="fill:#e6e6e6;stroke:none;stroke-width:1.05833328px;stroke-linecap:butt;stroke-linejoin:miter;stroke-opacity:1" />
            <path
                 style="fill:#b3b3b3;stroke:none;stroke-width:1.05833328px;stroke-linecap:butt;stroke-linejoin:miter;stroke-opacity:1"
                 d="M 245.53336,59.404124 243.94586,60.991624 V 61.520784 L 246.06253,62.579124 C 246.5917,62.884724 246.5917,63.555621 247.65003,64.166621 L 248.70836,64.695781 250.29586,63.108281 V 62.579124 L 249.23753,62.049954 C 248.321,61.520794 248.56656,60.991614 247.65003,60.462454 Z"
                 id="path2936"
                 inkscape:connector-curvature="0" />
            <path
                 inkscape:connector-curvature="0"
                 id="path2940"
                 d="M 248.92541,61.832904 247.33791,63.420421 C 247.42551,63.492421 247.52511,63.565221 247.65003,63.637621 L 248.70836,64.166781 250.29586,62.579264 249.23753,62.050104 C 249.11261,61.978104 249.01305,61.905304 248.92541,61.832904 Z"
                 style="fill:#e6e6e6;stroke:none;stroke-width:1.05833328px;stroke-linecap:butt;stroke-linejoin:miter;stroke-opacity:1" />
            <path
                 style="fill:#e6e6e6;stroke:none;stroke-width:1.05833328px;stroke-linecap:butt;stroke-linejoin:miter;stroke-opacity:1"
                 d="M 243.94588,61.520784 246.06255,62.579104 C 246.59172,62.884704 246.59172,63.555621 247.65005,64.166621 L 248.70838,64.695781 V 64.166621 L 247.65005,63.637461 C 246.73349,63.108301 246.97911,62.579104 246.06255,62.049944 L 243.94588,60.991624 Z"
                 id="path2942"
                 inkscape:connector-curvature="0"
                 sodipodi:nodetypes="ccccccccc" />
            <path
                 inkscape:connector-curvature="0"
                 id="path2946"
                 d="M 248.17919,56.758297 246.59169,58.345794 V 58.874954 L 248.70835,59.933294 C 249.23752,60.238894 249.23752,60.909794 250.29585,61.520794 L 251.35419,62.049954 252.94169,60.462454 V 59.933294 L 251.88335,59.404124 C 250.96683,58.874964 251.21238,58.345784 250.29585,57.816624 Z"
                 style="fill:#b3b3b3;stroke:none;stroke-width:1.05833328px;stroke-linecap:butt;stroke-linejoin:miter;stroke-opacity:1" />
            <path
                 style="fill:#e6e6e6;stroke:none;stroke-width:1.05833328px;stroke-linecap:butt;stroke-linejoin:miter;stroke-opacity:1"
                 d="M 251.57124,59.187074 249.98374,60.774594 C 250.07134,60.846594 250.17094,60.919394 250.29586,60.991794 L 251.35419,61.520954 252.94169,59.933434 251.88336,59.404274 C 251.75844,59.332274 251.65888,59.259474 251.57124,59.187074 Z"
                 id="path2950"
                 inkscape:connector-curvature="0" />
            <path
                 sodipodi:nodetypes="ccccccccc"
                 inkscape:connector-curvature="0"
                 id="path2952"
                 d="M 246.5917,58.874954 248.70837,59.933274 C 249.23754,60.238874 249.23754,60.909794 250.29587,61.520794 L 251.3542,62.049954 V 61.520794 L 250.29587,60.991634 C 249.37931,60.462474 249.62493,59.933274 248.70837,59.404114 L 246.5917,58.345794 Z"
                 style="fill:#e6e6e6;stroke:none;stroke-width:1.05833328px;stroke-linecap:butt;stroke-linejoin:miter;stroke-opacity:1" />
        </g>
        <g
             id="g2737"
             transform="translate(105.83334,52.916669)">
            <path
                 transform="translate(52.916669,-52.916669)"
                 sodipodi:nodetypes="cccccc"
                 inkscape:connector-curvature="0"
                 id="path3235"
                 d="M 10.583346,80.041662 V 37.70836 H 29.633342 L 42.333346,50.40836 V 80.041662 Z"
                 style="fill:white;stroke:none;stroke-width:2.11666679;stroke-linecap:butt;stroke-linejoin:miter;stroke-miterlimit:4;stroke-dasharray:none;stroke-opacity:1" />
            <path
                 transform="translate(52.916669,-52.916669)"
                 sodipodi:nodetypes="cc"
                 inkscape:connector-curvature="0"
                 id="path936"
                 d="M 26.458335,62.843714 V 46.968721"
                 style="fill:none;stroke:#0000d4;stroke-width:1.0583334;stroke-linecap:round;stroke-linejoin:miter;stroke-miterlimit:4;stroke-dasharray:none;stroke-opacity:1" />
            <path
                 transform="translate(52.916669,-52.916669)"
                 sodipodi:nodetypes="ccccc"
                 inkscape:connector-curvature="0"
                 id="path924"
                 d="M 18.520835,56.229127 26.458335,60.197874 34.395835,56.229127 26.458335,52.26039 Z"
                 style="fill:#2a7fff;stroke:none;stroke-width:0.13229166px;stroke-linecap:round;stroke-linejoin:miter;stroke-opacity:1" />
            <path
                 transform="translate(52.916669,-52.916669)"
                 inkscape:connector-curvature="0"
                 id="path938"
                 d="M 26.458335,62.843714 39.687499,69.458288"
                 style="fill:none;stroke:#00d400;stroke-width:1.0583334;stroke-linecap:round;stroke-linejoin:miter;stroke-miterlimit:4;stroke-dasharray:none;stroke-opacity:1" />
            <path
                 transform="translate(52.916669,-52.916669)"
                 sodipodi:nodetypes="ccc"
                 inkscape:connector-curvature="0"
                 id="path3237"
                 d="M 29.633342,37.70836 V 50.40836 H 42.333346"
                 style="fill:#ccc;stroke:none;stroke-width:2.11666679;stroke-linecap:butt;stroke-linejoin:miter;stroke-miterlimit:4;stroke-dasharray:none;stroke-opacity:1" />
            <path
                 transform="translate(52.916669,-52.916669)"
                 sodipodi:nodetypes="cc"
                 inkscape:connector-curvature="0"
                 id="path940"
                 d="M 26.458335,62.843714 13.229168,69.458288"
                 style="fill:none;stroke:#d40000;stroke-width:1.0583334;stroke-linecap:round;stroke-linejoin:miter;stroke-miterlimit:4;stroke-dasharray:none;stroke-opacity:1" />
            <path
                 transform="translate(52.916669,-52.916669)"
                 sodipodi:nodetypes="ccccc"
                 inkscape:connector-curvature="0"
                 id="path926"
                 d="M 18.520835,56.229127 26.458335,60.197874 V 70.781208 L 18.520835,66.812461 Z"
                 style="fill:#06f;stroke:none;stroke-width:0.13229166px;stroke-linecap:round;stroke-linejoin:miter;stroke-opacity:1" />
            <path
                 transform="translate(52.916669,-52.916669)"
                 sodipodi:nodetypes="ccccc"
                 inkscape:connector-curvature="0"
                 id="path928"
                 d="M 26.458335,70.781208 V 60.197874 L 34.395835,56.229127 V 66.812461 Z"
                 style="fill:#003380;stroke:none;stroke-width:0.13229166px;stroke-linecap:round;stroke-linejoin:miter;stroke-opacity:1" />
        </g>
        <path
             style="fill:#1a1a1a;stroke:none;stroke-width:0.26458332px;stroke-linecap:butt;stroke-linejoin:miter;stroke-opacity:1"
             d="m 6.6145835,291.70831 c -0.6614584,0 -1.3229167,-0.66146 -1.3229167,-1.32292 v -39.6875 l 1.3229167,-1.32292 H 43.656251 l 3.96875,3.96875 v 37.04167 c 0,0.66146 -0.661458,1.32292 -1.322917,1.32292 z"
             id="path1203"
             inkscape:connector-curvature="0"
             sodipodi:nodetypes="ccccccccc" />
        <path
             style="fill:none;stroke:#4d4d4d;stroke-width:0.5291667;stroke-linecap:butt;stroke-linejoin:miter;stroke-miterlimit:4;stroke-dasharray:none;stroke-opacity:1"
             d="m 9.2604169,249.37497 1e-6,14.55209 c 0,0.66146 0.661458,1.32291 1.3229161,1.32291 l 25.135419,0 c 0.661458,0 1.322916,-0.66145 1.322916,-1.32291 l -10e-7,-14.55209"
             id="path1205"
             inkscape:connector-curvature="0"
             sodipodi:nodetypes="cccccc" />
        <path
             sodipodi:nodetypes="ccccccc"
             inkscape:connector-curvature="0"
             id="path1207"
             d="m 14.552084,249.37497 10e-7,14.55209 c 0,0.66146 0.661458,1.32291 1.322916,1.32291 l 19.843752,0 c 0.661458,0 1.322916,-0.66145 1.322916,-1.32291 l -10e-7,-14.55209 z"
             style="fill:#cccccc;stroke:none;stroke-width:0.26458332px;stroke-linecap:butt;stroke-linejoin:miter;stroke-opacity:1" />
        <path
             style="fill:#000000;stroke:none;stroke-width:0.26458332px;stroke-linecap:butt;stroke-linejoin:miter;stroke-opacity:1"
             d="m 9.2604169,291.70831 -6e-7,-19.84376 c 0,-0.66146 0.661458,-1.32291 1.3229157,-1.32291 h 31.750002 c 0.661458,0 1.322916,0.66145 1.322916,1.32291 l 10e-7,19.84376 z"
             id="path1209"
             inkscape:connector-curvature="0"
             sodipodi:nodetypes="ccccccc" />
        <path
             style="fill:#ffffff;stroke:#000000;stroke-width:0.26458332px;stroke-linecap:butt;stroke-linejoin:miter;stroke-opacity:1"
             d="m 10.583333,286.41664 c 1e-6,1.32292 1.322917,2.64583 2.645834,2.64583 H 39.6875 c 1.322918,0 2.645834,-1.32291 2.645833,-2.64583 v -11.90625 c 10e-7,-1.32292 -1.322915,-2.64583 -2.645833,-2.64584 H 13.229167 c -1.322917,10e-6 -2.645833,1.32292 -2.645834,2.64584 z"
             id="path1211"
             inkscape:connector-curvature="0"
             sodipodi:nodetypes="ccccccccc" />
        <path
             style="fill:none;stroke:#3771c8;stroke-width:0.52916667;stroke-linecap:butt;stroke-linejoin:miter;stroke-opacity:1;stroke-miterlimit:4;stroke-dasharray:none"
             d="M 13.229167,275.8333 H 39.6875"
             id="path1213"
             inkscape:connector-curvature="0" />
        <path
             style="fill:none;stroke:#3771c8;stroke-width:0.52916667;stroke-linecap:butt;stroke-linejoin:miter;stroke-opacity:1;stroke-miterlimit:4;stroke-dasharray:none"
             d="M 13.229167,278.47914 H 39.6875"
             id="path1215"
             inkscape:connector-curvature="0" />
        <path
             style="fill:none;stroke:#3771c8;stroke-width:0.52916667;stroke-linecap:butt;stroke-linejoin:miter;stroke-opacity:1;stroke-miterlimit:4;stroke-dasharray:none"
             d="M 13.229167,281.12497 H 39.6875"
             id="path1217"
             inkscape:connector-curvature="0" />
        <path
             style="fill:none;stroke:#3771c8;stroke-width:0.52916667;stroke-linecap:butt;stroke-linejoin:miter;stroke-opacity:1;stroke-miterlimit:4;stroke-dasharray:none"
             d="M 13.229167,283.7708 H 39.6875"
             id="path1219"
             inkscape:connector-curvature="0" />
        <path
             style="fill:none;stroke:#3771c8;stroke-width:0.52916667;stroke-linecap:butt;stroke-linejoin:miter;stroke-opacity:1;stroke-miterlimit:4;stroke-dasharray:none"
             d="M 13.229167,286.41664 H 39.6875"
             id="path1221"
             inkscape:connector-curvature="0" />
        <g
             id="g2706"
             transform="translate(-52.916669)">
            <path
                 style="fill:#37c871;stroke:none;stroke-width:2.11666679;stroke-linecap:butt;stroke-linejoin:miter;stroke-miterlimit:4;stroke-dasharray:none;stroke-opacity:1"
                 d="M 116.41663,80.041662 V 37.70836 H 135.46662 L 148.16663,50.40836 V 80.041662 Z"
                 id="path1227"
                 inkscape:connector-curvature="0"
                 sodipodi:nodetypes="cccccc" />
            <path
                 style="fill:#2ca05a;stroke:none;stroke-width:2.11666679;stroke-linecap:butt;stroke-linejoin:miter;stroke-miterlimit:4;stroke-dasharray:none;stroke-opacity:1"
                 d="M 135.46662,37.70836 V 50.40836 H 148.16663"
                 id="path1229"
                 inkscape:connector-curvature="0"
                 sodipodi:nodetypes="ccc" />
            <rect
                 y="52.260391"
                 x="120.38542"
                 height="3.96875"
                 width="7.9375"
                 id="rect1169"
                 style="fill:white;fill-opacity:1;stroke:none;stroke-width:0.52916664;stroke-linecap:butt;stroke-linejoin:round;stroke-miterlimit:4;stroke-dasharray:none;stroke-dashoffset:0" />
            <rect
                 y="52.260391"
                 x="129.64584"
                 height="3.96875"
                 width="14.552083"
                 id="rect1171"
                 style="fill:white;fill-opacity:1;stroke:none;stroke-width:0.52916664;stroke-linecap:butt;stroke-linejoin:round;stroke-miterlimit:4;stroke-dasharray:none;stroke-dashoffset:0" />
            <rect
                 y="57.552059"
                 x="120.38542"
                 height="3.96875"
                 width="7.9375"
                 id="rect1173"
                 style="fill:white;fill-opacity:1;stroke:none;stroke-width:0.52916664;stroke-linecap:butt;stroke-linejoin:round;stroke-miterlimit:4;stroke-dasharray:none;stroke-dashoffset:0" />
            <rect
                 y="57.552059"
                 x="129.64584"
                 height="3.96875"
                 width="14.552083"
                 id="rect1175"
                 style="fill:white;fill-opacity:1;stroke:none;stroke-width:0.52916664;stroke-linecap:butt;stroke-linejoin:round;stroke-miterlimit:4;stroke-dasharray:none;stroke-dashoffset:0" />
            <rect
                 y="62.843723"
                 x="120.38542"
                 height="3.96875"
                 width="7.9375"
                 id="rect1177"
                 style="fill:white;fill-opacity:1;stroke:none;stroke-width:0.52916664;stroke-linecap:butt;stroke-linejoin:round;stroke-miterlimit:4;stroke-dasharray:none;stroke-dashoffset:0" />
            <rect
                 y="62.843723"
                 x="129.64584"
                 height="3.96875"
                 width="14.552083"
                 id="rect1179"
                 style="fill:white;fill-opacity:1;stroke:none;stroke-width:0.52916664;stroke-linecap:butt;stroke-linejoin:round;stroke-miterlimit:4;stroke-dasharray:none;stroke-dashoffset:0" />
        </g>
        <path
             style="fill:white;stroke:none;stroke-width:2.11666679;stroke-linecap:butt;stroke-linejoin:miter;stroke-miterlimit:4;stroke-dasharray:none;stroke-opacity:1"
             d="M 222.25003,80.041662 V 37.70836 H 241.30002 L 254.00003,50.40836 V 80.041662 Z"
             id="path2640"
             inkscape:connector-curvature="0"
             sodipodi:nodetypes="cccccc"
             transform="translate(-211.66674,52.916669)" />
        <path
             style="fill:#ccc;stroke:none;stroke-width:2.11666679;stroke-linecap:butt;stroke-linejoin:miter;stroke-miterlimit:4;stroke-dasharray:none;stroke-opacity:1"
             d="M 241.30002,37.70836 V 50.40836 H 254.00003"
             id="path2642"
             inkscape:connector-curvature="0"
             sodipodi:nodetypes="ccc"
             transform="translate(-211.66674,52.916669)" />
        <g
             id="g2714"
             transform="translate(-52.916669)">
            <path
                 sodipodi:nodetypes="cccccc"
                 inkscape:connector-curvature="0"
                 id="path1223"
                 d="M 169.33333,80.041662 V 37.70836 H 188.38332 L 201.08333,50.40836 V 80.041662 Z"
                 style="fill:#ff7f2a;stroke:none;stroke-width:2.11666679;stroke-linecap:butt;stroke-linejoin:miter;stroke-miterlimit:4;stroke-dasharray:none;stroke-opacity:1" />
            <path
                 sodipodi:nodetypes="csccscc"
                 inkscape:connector-curvature="0"
                 id="path2595"
                 d="M 760,110.00002 C 760,115.52287 746.56854,120.00002 730,120.00002 713.43146,120.00002 700,115.52287 700,110.00002 V 124.00002 C 700,129.52287 713.43146,134.00002 730,134.00002 746.56854,134.00002 760,129.52287 760,124.00002 Z"
                 style="opacity:1;fill:white;fill-opacity:1;stroke:none;stroke-width:8;stroke-linecap:round;stroke-linejoin:round;stroke-miterlimit:4;stroke-dasharray:none;stroke-dashoffset:0;stroke-opacity:1"
                 transform="matrix(0.26458333,0,0,0.26458333,-7.9374998,34.533311)" />
            <path
                 transform="matrix(0.26458333,0,0,0.26458333,-7.9374998,29.770811)"
                 style="opacity:1;fill:white;fill-opacity:1;stroke:none;stroke-width:8;stroke-linecap:round;stroke-linejoin:round;stroke-miterlimit:4;stroke-dasharray:none;stroke-dashoffset:0;stroke-opacity:1"
                 d="M 760,110.00002 C 760,115.52287 746.56854,120.00002 730,120.00002 713.43146,120.00002 700,115.52287 700,110.00002 V 124.00002 C 700,129.52287 713.43146,134.00002 730,134.00002 746.56854,134.00002 760,129.52287 760,124.00002 Z"
                 id="path2615"
                 inkscape:connector-curvature="0"
                 sodipodi:nodetypes="csccscc" />
            <ellipse
                 ry="10"
                 rx="30"
                 transform="matrix(0.26458333,0,0,0.26458333,-10.583334,23.94998)"
                 cy="110.00002"
                 cx="740"
                 id="ellipse2617"
                 style="opacity:1;fill:white;fill-opacity:1;stroke:none;stroke-width:8;stroke-linecap:round;stroke-linejoin:round;stroke-miterlimit:4;stroke-dasharray:none;stroke-dashoffset:0;stroke-opacity:1" />
            <path
                 sodipodi:nodetypes="csccscc"
                 inkscape:connector-curvature="0"
                 id="path2619"
                 d="M 760,110.00002 C 760,115.52287 746.56854,120.00002 730,120.00002 713.43146,120.00002 700,115.52287 700,110.00002 V 124.00002 C 700,129.52287 713.43146,134.00002 730,134.00002 746.56854,134.00002 760,129.52287 760,124.00002 Z"
                 style="opacity:1;fill:white;fill-opacity:1;stroke:none;stroke-width:8;stroke-linecap:round;stroke-linejoin:round;stroke-miterlimit:4;stroke-dasharray:none;stroke-dashoffset:0;stroke-opacity:1"
                 transform="matrix(0.26458333,0,0,0.26458333,-7.9374998,25.008311)" />
            <path
                 sodipodi:nodetypes="ccc"
                 inkscape:connector-curvature="0"
                 id="path1225"
                 d="M 188.38332,37.70836 V 50.40836 H 201.08333"
                 style="fill:#d45500;stroke:none;stroke-width:2.11666679;stroke-linecap:butt;stroke-linejoin:miter;stroke-miterlimit:4;stroke-dasharray:none;stroke-opacity:1" />
        </g>
    </g>
</svg>
