<?xml version="1.0" encoding="UTF-8" standalone="no"?>
<!-- Created with Inkscape (http://www.inkscape.org/) -->

<svg
     width="180"
     height="180"
     viewBox="0 0 180 180"
     version="1.1"
     id="svg5"
     inkscape:version="1.1.1 (3bf5ae0d25, 2021-09-20)"
     sodipodi:docname="component_symbol_wizard_180x180.svg"
     xmlns:inkscape="http://www.inkscape.org/namespaces/inkscape"
     xmlns:sodipodi="http://sodipodi.sourceforge.net/DTD/sodipodi-0.dtd"
     xmlns:xlink="http://www.w3.org/1999/xlink"
     xmlns="http://www.w3.org/2000/svg"
     xmlns:svg="http://www.w3.org/2000/svg">
    <sodipodi:namedview
         id="namedview7"
         pagecolor="#505050"
         bordercolor="white"
         borderopacity="1"
         inkscape:pageshadow="0"
         inkscape:pageopacity="0"
         inkscape:pagecheckerboard="1"
         inkscape:document-units="px"
         showgrid="true"
         inkscape:zoom="1.5"
         inkscape:cx="61.333333"
         inkscape:cy="103"
         inkscape:window-width="1366"
         inkscape:window-height="705"
         inkscape:window-x="-8"
         inkscape:window-y="-8"
         inkscape:window-maximized="1"
         inkscape:current-layer="layer1"
         showguides="true">
        <inkscape:grid
             type="xygrid"
             id="grid824"
             empspacing="4" />
    </sodipodi:namedview>
    <defs
         id="defs2">
        <linearGradient
             inkscape:collect="always"
             id="linearGradient7682">
            <stop
                 style="stop-color:white;stop-opacity:1"
                 offset="0"
                 id="stop7678" />
            <stop
                 style="stop-color:#fd5;stop-opacity:1"
                 offset="0.17764509"
                 id="stop8030" />
            <stop
                 style="stop-color:#ffd42a;stop-opacity:0"
                 offset="1"
                 id="stop7680" />
        </linearGradient>
        <linearGradient
             inkscape:collect="always"
             id="linearGradient6872">
            <stop
                 style="stop-color:white;stop-opacity:1"
                 offset="0"
                 id="stop6868" />
            <stop
                 style="stop-color:#fd5;stop-opacity:1"
                 offset="0.47906303"
                 id="stop7381" />
            <stop
                 style="stop-color:#ffd42a;stop-opacity:0"
                 offset="1"
                 id="stop6870" />
        </linearGradient>
        <linearGradient
             inkscape:collect="always"
             id="linearGradient2711">
            <stop
                 style="stop-color:#ffe680;stop-opacity:0.30000001"
                 offset="0"
                 id="stop2707" />
            <stop
                 style="stop-color:#ffe680;stop-opacity:0;"
                 offset="1"
                 id="stop2709" />
        </linearGradient>
        <linearGradient
             inkscape:collect="always"
             id="linearGradient10955-5">
            <stop
                 style="stop-color:white;stop-opacity:0.16"
                 offset="0"
                 id="stop15420" />
            <stop
                 style="stop-color:black;stop-opacity:0.16"
                 offset="1"
                 id="stop15422" />
        </linearGradient>
        <linearGradient
             inkscape:collect="always"
             id="linearGradient13112">
            <stop
                 style="stop-color:white;stop-opacity:0.16"
                 offset="0"
                 id="stop13108" />
            <stop
                 style="stop-color:black;stop-opacity:0.16"
                 offset="1"
                 id="stop13110" />
        </linearGradient>
        <linearGradient
             inkscape:collect="always"
             id="linearGradient10955-9">
            <stop
                 style="stop-color:black;stop-opacity:0.16"
                 offset="0"
                 id="stop8613" />
            <stop
                 style="stop-color:black;stop-opacity:0"
                 offset="1"
                 id="stop8615" />
        </linearGradient>
        <linearGradient
             inkscape:collect="always"
             id="linearGradient10955-5-7">
            <stop
                 style="stop-color:white;stop-opacity:0.17"
                 offset="0"
                 id="stop10951" />
            <stop
                 style="stop-color:black;stop-opacity:0"
                 offset="1"
                 id="stop10953" />
        </linearGradient>
        <linearGradient
             inkscape:collect="always"
             xlink:href="#linearGradient10955-5"
             id="linearGradient10957"
             x1="48"
             y1="90"
             x2="48"
             y2="94"
             gradientUnits="userSpaceOnUse" />
        <linearGradient
             inkscape:collect="always"
             xlink:href="#linearGradient10955-5-7"
             id="linearGradient8553"
             x1="253"
             y1="142"
             x2="276"
             y2="144"
             gradientUnits="userSpaceOnUse" />
        <linearGradient
             inkscape:collect="always"
             xlink:href="#linearGradient10955-9"
             id="linearGradient10715"
             gradientUnits="userSpaceOnUse"
             x1="253"
             y1="142"
             x2="276"
             y2="144" />
        <linearGradient
             inkscape:collect="always"
             xlink:href="#linearGradient13112"
             id="linearGradient13114"
             x1="232"
             y1="127"
             x2="308"
             y2="127"
             gradientUnits="userSpaceOnUse" />
        <radialGradient
             inkscape:collect="always"
             xlink:href="#linearGradient2711"
             id="radialGradient2713"
             cx="92"
             cy="111.75"
             fx="92"
             fy="111.75"
             r="50"
             gradientTransform="matrix(2.32,0,0,2.32,-121.44,-139.26)"
             gradientUnits="userSpaceOnUse" />
        <radialGradient
             inkscape:collect="always"
             xlink:href="#linearGradient6872"
             id="radialGradient6874"
             cx="90"
             cy="94.000001"
             fx="90"
             fy="94.000001"
             r="6.466797"
             gradientTransform="translate(0,-2.1803685e-5)"
             gradientUnits="userSpaceOnUse" />
        <radialGradient
             inkscape:collect="always"
             xlink:href="#linearGradient7682"
             id="radialGradient7684"
             cx="90"
             cy="94"
             fx="90"
             fy="94"
             r="17"
             gradientUnits="userSpaceOnUse" />
    </defs>
    <g
         inkscape:label="Camada 1"
         inkscape:groupmode="layer"
         id="layer1">
        <circle
             style="display:none;fill:red;fill-opacity:1;stroke:none;stroke-width:0.953488;stroke-miterlimit:4;stroke-dasharray:none"
             id="path11936"
             cx="22"
             cy="22"
             r="82"
             transform="matrix(1.0487805,0,0,1.0487805,66.926829,66.926829)" />
        <path
             style="fill:url(#radialGradient2713);fill-opacity:1;stroke-width:2;stroke-linecap:square"
             d="M 112,120 140,20 C 112,-2 68,-2 40,20 L 68,120 Z"
             id="path1048"
             sodipodi:nodetypes="ccccc" />
        <g
             id="g17215"
             transform="matrix(0.5,0,0,0.5,45,-4)">
            <g
                 id="g11824"
                 transform="translate(0,-2)">
                <rect
                     style="fill:#1a1a1a;stroke:#2a7fff;stroke-width:2;stroke-miterlimit:4;stroke-dasharray:none"
                     id="rect3754"
                     width="92"
                     height="104"
                     x="44"
                     y="36"
                     transform="translate(0,4)" />
                <path
                     style="fill:none;stroke:#2a7fff;stroke-width:2;stroke-miterlimit:4;stroke-dasharray:none"
                     d="M 16,52 H 48"
                     id="path3910"
                     sodipodi:nodetypes="cc"
                     transform="translate(-4,4)" />
                <path
                     style="fill:none;stroke:#2a7fff;stroke-width:2;stroke-miterlimit:4;stroke-dasharray:none"
                     d="M 16,52 H 48"
                     id="path4223"
                     sodipodi:nodetypes="cc"
                     transform="translate(-4,28)" />
                <path
                     style="fill:none;stroke:#2a7fff;stroke-width:2;stroke-miterlimit:4;stroke-dasharray:none"
                     d="M 16,52 H 48"
                     id="path4305"
                     sodipodi:nodetypes="cc"
                     transform="translate(-4,52)" />
                <path
                     style="fill:none;stroke:#2a7fff;stroke-width:2;stroke-miterlimit:4;stroke-dasharray:none"
                     d="M 16,52 H 48"
                     id="path4307"
                     sodipodi:nodetypes="cc"
                     transform="translate(-4,76)" />
                <path
                     style="fill:none;stroke:#2a7fff;stroke-width:2;stroke-miterlimit:4;stroke-dasharray:none"
                     d="M 16,52 H 48"
                     id="path4465"
                     sodipodi:nodetypes="cc"
                     transform="translate(120,4)" />
                <path
                     style="fill:none;stroke:#2a7fff;stroke-width:2;stroke-miterlimit:4;stroke-dasharray:none"
                     d="M 16,52 H 48"
                     id="path4467"
                     sodipodi:nodetypes="cc"
                     transform="translate(120,28)" />
                <path
                     style="fill:none;stroke:#2a7fff;stroke-width:2;stroke-miterlimit:4;stroke-dasharray:none"
                     d="M 16,52 H 48"
                     id="path4469"
                     sodipodi:nodetypes="cc"
                     transform="translate(120,52)" />
                <path
                     style="fill:none;stroke:#2a7fff;stroke-width:2;stroke-miterlimit:4;stroke-dasharray:none"
                     d="M 16,52 H 48"
                     id="path4471"
                     sodipodi:nodetypes="cc"
                     transform="translate(120,76)" />
            </g>
            <path
                 d="M 5.4257812,25.62793 H 4.5273437 Q 4.3417969,25.62793 4.234375,25.520508 4.1318359,25.417969 4.1171875,25.261719 4.1318359,25.081055 4.2441406,24.978516 4.3613281,24.871094 4.546875,24.871094 H 6.0556641 Q 6.2216797,24.871094 6.265625,24.929687 6.3046875,24.983398 6.3046875,25.120117 V 31.589844 Q 6.3046875,31.80957 6.1728516,31.941406 6.0410156,32.058594 5.8554687,32.058594 5.6845703,32.058594 5.5527344,31.931641 5.4257812,31.80957 5.4257812,31.589844 Z"
                 id="path49954"
                 transform="matrix(1.6549495,0,0,1.6549495,19.186263,-3.1604046)"
                 style="font-size:10px;line-height:1.25;font-family:Arial-Rounded;-inkscape-font-specification:Arial-Rounded;text-align:center;text-anchor:middle;fill:#2a7fff;fill-opacity:1;stroke:white;stroke-width:1.2085;stroke-linecap:square;stroke-opacity:0" />
            <path
                 d="M 7.8134766,27.039062 Q 7.828125,26.433594 8.0869141,25.94043 8.3359375,25.442383 8.8535156,25.120117 9.3759766,24.807617 10.09375,24.807617 10.655273,24.832031 11.06543,25.061523 11.5,25.295898 11.753906,25.720703 12.017578,26.150391 12.017578,26.667969 12.017578,27.400391 11.485352,28.108398 L 9.1269531,31.238281 H 11.836914 Q 12.208008,31.238281 12.208008,31.628906 12.208008,31.785156 12.105469,31.887695 12.017578,32 11.817383,32 H 8.3066406 Q 8.1601563,32 8.0136719,31.921875 7.8916016,31.838867 7.8769531,31.692383 7.9208984,31.458008 7.984375,31.370117 L 10.68457,27.742187 Q 11.055664,27.249023 11.055664,26.692383 11.055664,26.21875 10.723633,25.901367 10.396484,25.588867 9.9277344,25.588867 9.5664063,25.588867 9.2880859,25.779297 8.9902344,25.984375 8.8242188,26.311523 8.6533203,26.677734 8.6533203,27.039062 8.6533203,27.581055 8.2236328,27.610352 8.2138672,27.600586 8.2138672,27.600586 8.2138672,27.600586 8.2041016,27.59082 H 8.1845703 Q 7.8134766,27.561523 7.8134766,27.039062 Z"
                 id="path49956"
                 transform="matrix(1.6549495,0,0,1.6549495,11.069091,20.944647)"
                 style="font-size:10px;line-height:1.25;font-family:Arial-Rounded;-inkscape-font-specification:Arial-Rounded;text-align:center;text-anchor:middle;fill:#2a7fff;fill-opacity:1;stroke:white;stroke-width:1.2085;stroke-linecap:square;stroke-opacity:0" />
            <path
                 d="M 13.316406,26.428711 Q 13.379883,25.945312 13.628906,25.579102 13.873047,25.227539 14.317383,25.007812 14.756836,24.807617 15.298828,24.807617 15.796875,24.827148 16.207031,25.09082 16.592773,25.334961 16.827148,25.769531 17.037109,26.18457 17.037109,26.667969 17.037109,27.107422 16.827148,27.507812 16.617187,27.893555 16.207031,28.171875 16.802734,28.347656 17.105469,28.821289 17.251953,29.041016 17.330078,29.319336 17.408203,29.592773 17.408203,29.910156 17.408203,30.110352 17.369141,30.417969 17.271484,30.862305 17.007812,31.228516 16.724609,31.604492 16.236328,31.829102 15.738281,32.058594 15.05957,32.058594 14.561523,32.058594 14.161133,31.868164 13.765625,31.677734 13.477539,31.360352 13.189453,31.042969 13.086914,30.652344 13.082031,30.623047 13.077148,30.603516 13.077148,30.579102 13.067383,30.530273 13.0625,30.491211 13.057617,30.461914 13.057617,30.427734 13.047852,30.398437 13.0625,30.217773 13.174805,30.071289 13.301758,29.929687 13.477539,29.929687 13.790039,29.929687 13.907227,30.320312 14.19043,31.199219 15.118164,31.321289 15.464844,31.306641 15.787109,31.140625 16.094727,30.974609 16.285156,30.691406 16.470703,30.422852 16.485352,30.071289 16.485352,28.640625 15.279297,28.640625 14.732422,28.640625 14.688477,28.289062 14.688477,28.098633 14.81543,28.030273 14.991211,27.9375 15.298828,27.859375 15.71875,27.74707 15.948242,27.439453 16.158203,27.146484 16.158203,26.570312 16.143555,26.301758 15.99707,26.047852 15.855469,25.813477 15.640625,25.691406 15.430664,25.569336 15.157227,25.569336 14.74707,25.569336 14.458984,25.818359 14.180664,26.067383 14.136719,26.609375 14.136719,26.794922 14.019531,26.921875 13.902344,27.043945 13.726563,27.058594 13.545898,27.043945 13.428711,26.87793 13.316406,26.711914 13.316406,26.428711 Z"
                 id="path49958"
                 transform="matrix(1.6549495,0,0,1.6549495,2.4064639,44.944647)"
                 style="font-size:10px;line-height:1.25;font-family:Arial-Rounded;-inkscape-font-specification:Arial-Rounded;text-align:center;text-anchor:middle;fill:#2a7fff;fill-opacity:1;stroke:white;stroke-width:1.2085;stroke-linecap:square;stroke-opacity:0" />
            <path
                 d="M 21.348633,30.15918 H 18.516602 Q 18.116211,30.15918 18.086914,29.910156 18.101562,29.729492 18.296875,29.402344 L 20.879883,25.217773 Q 21.041016,24.954102 21.1875,24.880859 21.338867,24.807617 21.558594,24.807617 21.871094,24.807617 22.056641,25.007812 22.227539,25.208008 22.227539,25.520508 V 29.402344 H 22.676758 Q 22.847656,29.402344 22.955078,29.524414 23.067383,29.641602 23.067383,29.807617 23.067383,29.944336 22.959961,30.061523 22.857422,30.15918 22.637695,30.15918 H 22.227539 V 31.589844 Q 22.227539,31.80957 22.095703,31.936523 21.96875,32.058594 21.77832,32.058594 21.612305,32.058594 21.480469,31.941406 21.348633,31.824219 21.348633,31.609375 Z M 21.348633,29.402344 V 25.75 H 21.329102 L 19.239258,29.402344 Z"
                 id="path49960"
                 transform="matrix(1.6549495,0,0,1.6549495,-5.9329293,68.944647)"
                 style="font-size:10px;line-height:1.25;font-family:Arial-Rounded;-inkscape-font-specification:Arial-Rounded;text-align:center;text-anchor:middle;fill:#2a7fff;fill-opacity:1;stroke:white;stroke-width:1.2085;stroke-linecap:square;stroke-opacity:0" />
            <path
                 d="M 24.839844,25.261719 Q 24.888672,24.958984 24.932617,24.919922 24.966797,24.871094 25.162109,24.871094 H 27.681641 Q 27.842773,24.871094 27.950195,24.978516 28.052734,25.100586 28.052734,25.261719 28.052734,25.408203 27.94043,25.520508 27.833008,25.62793 27.662109,25.62793 H 25.650391 L 25.352539,27.571289 Q 25.791992,27.371094 26.250977,27.371094 26.827148,27.371094 27.242187,27.678711 27.671875,27.991211 27.901367,28.489258 28.121094,28.987305 28.121094,29.578125 28.121094,29.739258 28.111328,29.788086 28.067383,30.354492 27.852539,30.808594 27.657227,31.238281 27.330078,31.521484 27.046875,31.780273 26.62207,31.931641 26.255859,32.058594 25.821289,32.058594 25.396484,32.058594 24.981445,31.931641 24.537109,31.80957 24.19043,31.550781 23.863281,31.282227 23.790039,30.891602 23.790039,30.740234 23.87793,30.62793 23.975586,30.520508 24.102539,30.520508 24.322266,30.520508 24.46875,30.691406 25.030273,31.228516 25.782227,31.257812 26.363281,31.243164 26.758789,30.862305 27.154297,30.481445 27.168945,29.768555 27.168945,29.216797 27.012695,28.870117 26.851562,28.508789 26.578125,28.347656 26.30957,28.191406 25.918945,28.191406 25.738281,28.191406 25.621094,28.220703 25.557617,28.235352 25.191406,28.337891 24.883789,28.445312 24.708008,28.459961 24.439453,28.459961 24.410156,28.152344 24.429687,28.064453 24.429687,28.020508 Z"
                 id="path49962"
                 transform="matrix(1.6549495,0,0,1.6549495,108.62869,68.839595)"
                 style="font-size:10px;line-height:1.25;font-family:Arial-Rounded;-inkscape-font-specification:Arial-Rounded;text-align:center;text-anchor:middle;fill:#2a7fff;fill-opacity:1;stroke:white;stroke-width:1.2085;stroke-linecap:square;stroke-opacity:0" />
            <path
                 d="M 31.802734,24.949219 Q 31.958984,24.807617 32.110352,24.807617 32.261719,24.807617 32.374023,24.939453 32.461914,25.076172 32.461914,25.242187 32.461914,25.40332 32.339844,25.530273 32.232422,25.671875 32.022461,25.828125 31.851562,25.964844 31.744141,26.082031 31.37793,26.467773 31.133789,26.819336 30.992187,27.014648 30.601562,27.678711 H 30.621094 Q 31.182617,27.390625 31.719727,27.390625 32.300781,27.390625 32.720703,27.742187 33.140625,28.113281 33.34082,28.650391 33.550781,29.202148 33.550781,29.788086 33.536133,30.286133 33.370117,30.720703 33.194336,31.140625 32.881836,31.438477 32.588867,31.731445 32.183594,31.902344 31.797852,32.058594 31.353516,32.058594 30.71875,32.058594 30.240234,31.731445 29.756836,31.379883 29.50293,30.818359 29.234375,30.237305 29.219727,29.519531 29.229492,29.460937 29.229492,29.397461 29.234375,29.329102 29.244141,29.241211 29.253906,29.114258 29.253906,29.070312 29.258789,29.026367 29.263672,28.967773 29.454102,27.639648 30.220703,26.628906 30.621094,26.09668 31.001953,25.696289 31.382812,25.295898 31.802734,24.949219 Z M 30.142578,29.402344 Q 30.142578,29.519531 30.103516,29.749023 30.118164,30.417969 30.459961,30.818359 30.787109,31.238281 31.353516,31.238281 31.973633,31.238281 32.291016,30.798828 32.613281,30.354492 32.613281,29.680664 32.613281,29.509766 32.603516,29.460937 32.476562,28.196289 31.412109,28.152344 30.894531,28.152344 30.552734,28.450195 30.21582,28.757812 30.142578,29.402344 Z"
                 id="path49964"
                 transform="matrix(1.6549495,0,0,1.6549495,99.642827,44.944647)"
                 style="font-size:10px;line-height:1.25;font-family:Arial-Rounded;-inkscape-font-specification:Arial-Rounded;text-align:center;text-anchor:middle;fill:#2a7fff;fill-opacity:1;stroke:white;stroke-width:1.2085;stroke-linecap:square;stroke-opacity:0" />
            <path
                 d="M 34.742187,25.569336 Q 34.336914,25.569336 34.292969,25.198242 34.307617,25.017578 34.415039,24.919922 34.527344,24.807617 34.722656,24.807617 H 38.365234 Q 38.814453,24.807617 38.814453,25.051758 38.814453,25.105469 38.711914,25.398437 L 35.953125,31.667969 Q 35.791992,32.058594 35.411133,32.058594 35.28418,32.058594 35.171875,31.970703 35.079102,31.87793 35.064453,31.711914 35.09375,31.526367 35.152344,31.360352 L 37.71582,25.588867 37.735352,25.569336 Z"
                 id="path49966"
                 transform="matrix(1.6549495,0,0,1.6549495,91.246868,20.944647)"
                 style="font-size:10px;line-height:1.25;font-family:Arial-Rounded;-inkscape-font-specification:Arial-Rounded;text-align:center;text-anchor:middle;fill:#2a7fff;fill-opacity:1;stroke:white;stroke-width:1.2085;stroke-linecap:square;stroke-opacity:0" />
            <path
                 d="M 40.293945,29.871094 Q 40.293945,30.193359 40.435547,30.530273 40.567383,30.857422 40.855469,31.072266 41.128906,31.287109 41.524414,31.301758 41.919922,31.301758 42.222656,31.101562 42.525391,30.876953 42.652344,30.55957 42.793945,30.222656 42.793945,29.851562 42.793945,29.495117 42.652344,29.158203 42.520508,28.826172 42.212891,28.630859 41.924805,28.430664 41.524414,28.430664 40.943359,28.445312 40.616211,28.875 40.293945,29.299805 40.293945,29.871094 Z M 40.542969,26.609375 Q 40.542969,27.083008 40.801758,27.371094 41.060547,27.65918 41.563477,27.65918 42.056641,27.65918 42.305664,27.351562 42.554687,27.053711 42.554687,26.589844 42.554687,26.311523 42.432617,26.082031 42.305664,25.837891 42.095703,25.710937 41.866211,25.569336 41.573242,25.569336 41.109375,25.569336 40.821289,25.847656 40.542969,26.111328 40.542969,26.609375 Z M 40.665039,28.020508 Q 40.220703,27.78125 39.97168,27.371094 39.737305,26.960937 39.722656,26.492187 39.737305,26.042969 39.942383,25.671875 40.142578,25.286133 40.542969,25.051758 40.938477,24.832031 41.504883,24.807617 42.076172,24.807617 42.515625,25.041992 42.925781,25.256836 43.145508,25.652344 43.355469,26.047852 43.355469,26.492187 43.355469,26.960937 43.121094,27.390625 42.881836,27.81543 42.432617,28.040039 43.067383,28.186523 43.394531,28.679687 43.72168,29.172852 43.72168,29.832031 43.72168,30.40332 43.472656,30.901367 43.350586,31.155273 43.155273,31.375 42.959961,31.589844 42.725586,31.741211 42.222656,32.058594 41.563477,32.058594 40.894531,32.058594 40.391602,31.741211 39.888672,31.399414 39.634766,30.891602 39.366211,30.383789 39.351562,29.807617 39.366211,29.177734 39.703125,28.669922 40.035156,28.181641 40.665039,28.020508 Z"
                 id="path49968"
                 transform="matrix(1.6549495,0,0,1.6549495,82.875152,-3.0553534)"
                 style="font-size:10px;line-height:1.25;font-family:Arial-Rounded;-inkscape-font-specification:Arial-Rounded;text-align:center;text-anchor:middle;fill:#2a7fff;fill-opacity:1;stroke:white;stroke-width:1.2085;stroke-linecap:square;stroke-opacity:0" />
            <g
                 aria-label="U?"
                 transform="matrix(1.9307744,0,0,1.9307744,-26.282155,-16.451717)"
                 id="text59267"
                 style="font-size:10px;line-height:1.25;font-family:Arial-Rounded;-inkscape-font-specification:Arial-Rounded;text-align:center;text-anchor:middle;fill:#2a7fff;stroke:white;stroke-width:1.03586;stroke-linecap:square;stroke-opacity:0">
                <path
                     d="M 55.046387,17.261719 Q 55.046387,17.041992 55.17334,16.929687 55.305176,16.807617 55.476074,16.807617 55.646973,16.807617 55.783691,16.929687 55.915527,17.041992 55.915527,17.261719 V 21.539062 Q 55.915527,22.110352 56.164551,22.500977 56.42334,22.891602 56.85791,23.101562 57.312012,23.301758 57.854004,23.301758 58.42041,23.287109 58.825684,23.057617 59.240723,22.837891 59.465332,22.442383 59.685059,22.061523 59.685059,21.539062 V 17.261719 Q 59.685059,17.046875 59.807129,16.929687 59.929199,16.807617 60.095215,16.807617 60.270996,16.807617 60.41748,16.929687 60.544434,17.041992 60.544434,17.261719 V 21.250977 Q 60.544434,22.115234 60.246582,22.740234 59.958496,23.379883 59.343262,23.72168 58.747559,24.058594 57.834473,24.058594 57.13623,24.058594 56.599121,23.863281 56.066895,23.663086 55.725098,23.291992 55.373535,22.901367 55.217285,22.408203 55.046387,21.895508 55.046387,21.270508 Z"
                     id="path61358" />
                <path
                     d="M 63.26416,24.058594 Q 63.054199,24.058594 62.897949,23.902344 62.736816,23.755859 62.736816,23.550781 62.736816,23.350586 62.897949,23.189453 63.049316,23.038086 63.26416,23.038086 63.459473,23.038086 63.625488,23.189453 63.776855,23.355469 63.776855,23.550781 63.776855,23.755859 63.615723,23.902344 63.474121,24.058594 63.26416,24.058594 Z M 62.814941,21.661133 V 20.328125 Q 62.814941,20.123047 62.927246,20.020508 63.029785,19.932617 63.317871,19.859375 63.400879,19.839844 63.469238,19.820312 63.54248,19.800781 63.596191,19.786133 63.654785,19.771484 63.693848,19.761719 63.991699,19.678711 64.20166,19.454102 64.416504,19.224609 64.416504,18.790039 64.416504,18.272461 64.094238,17.950195 63.771973,17.62793 63.244629,17.62793 62.849121,17.62793 62.546387,17.828125 62.272949,18.018555 62.165527,18.360352 62.033691,18.785156 61.745605,18.799805 61.520996,18.731445 61.403809,18.628906 61.311035,18.550781 61.296387,18.321289 61.315918,18.213867 61.315918,18.121094 61.433105,17.588867 61.984863,17.198242 62.546387,16.807617 63.308105,16.807617 63.815918,16.832031 64.255371,17.017578 64.719238,17.212891 65.036621,17.618164 65.344238,18.008789 65.397949,18.570312 65.397949,19.390625 64.953613,19.917969 64.528809,20.435547 63.693848,20.621094 V 21.661133 Q 63.693848,21.866211 63.562012,21.983398 63.435059,22.095703 63.244629,22.110352 63.063965,22.095703 62.946777,21.96875 62.814941,21.856445 62.814941,21.661133 Z"
                     id="path61360" />
            </g>
            <g
                 aria-label="LM555"
                 transform="matrix(1.8988079,0,0,1.8988079,-9.1949659,-140.11523)"
                 id="text61045"
                 style="font-size:10px;line-height:1.25;font-family:Arial-Rounded;-inkscape-font-specification:Arial-Rounded;text-align:center;text-anchor:middle;fill:#2a7fff;stroke:white;stroke-width:1.05329;stroke-linecap:square;stroke-opacity:0">
                <path
                     d="M 38.547852,153.28125 Q 38.547852,153.04199 38.674805,152.92969 38.806641,152.80762 38.99707,152.80762 39.416992,152.80762 39.416992,153.32031 V 159.17969 H 41.21875 Q 41.423828,159.17969 41.575195,159.28223 41.726562,159.38477 41.726562,159.57031 41.726562,159.83887 41.584961,159.92187 41.443359,160 41.355469,160 H 38.958008 Q 38.796875,160 38.674805,159.87793 38.547852,159.78027 38.547852,159.46777 Z"
                     id="path61347" />
                <path
                     d="M 42.976562,153.41797 Q 43.030273,153.10547 43.206055,152.94922 43.401367,152.78809 43.640625,152.78809 43.879883,152.78809 44.050781,152.91992 44.22168,153.03223 44.290039,153.28125 L 45.808594,158.50098 H 45.828125 L 47.34668,153.24219 Q 47.415039,153.02246 47.59082,152.91016 47.756836,152.78809 47.976562,152.78809 48.225586,152.78809 48.430664,152.93945 48.616211,153.10547 48.660156,153.37891 L 49.700195,159.49219 Q 49.700195,159.79004 49.568359,159.93164 49.451172,160.07812 49.270508,160.07812 49.094727,160.07812 48.972656,159.98535 48.855469,159.8877 48.816406,159.69238 L 47.996094,153.93066 46.257812,159.73145 Q 46.169922,160.07812 45.828125,160.07812 45.676758,160.07812 45.549805,159.98047 45.427734,159.8877 45.378906,159.73145 L 43.660156,153.93066 42.820312,159.73145 Q 42.791016,159.93164 42.649414,160.03906 42.512695,160.16113 42.327148,160.16113 42.170898,160.16113 42.058594,160.0293 41.931641,159.88281 41.916992,159.64844 41.936523,159.55078 41.936523,159.44824 Z"
                     id="path61349" />
                <path
                     d="M 51.467773,153.26172 Q 51.516602,152.95898 51.560547,152.91992 51.594727,152.87109 51.790039,152.87109 H 54.30957 Q 54.470703,152.87109 54.578125,152.97852 54.680664,153.10059 54.680664,153.26172 54.680664,153.4082 54.568359,153.52051 54.460937,153.62793 54.290039,153.62793 H 52.27832 L 51.980469,155.57129 Q 52.419922,155.37109 52.878906,155.37109 53.455078,155.37109 53.870117,155.67871 54.299805,155.99121 54.529297,156.48926 54.749023,156.9873 54.749023,157.57812 54.749023,157.73926 54.739258,157.78809 54.695312,158.35449 54.480469,158.80859 54.285156,159.23828 53.958008,159.52148 53.674805,159.78027 53.25,159.93164 52.883789,160.05859 52.449219,160.05859 52.024414,160.05859 51.609375,159.93164 51.165039,159.80957 50.818359,159.55078 50.491211,159.28223 50.417969,158.8916 50.417969,158.74023 50.505859,158.62793 50.603516,158.52051 50.730469,158.52051 50.950195,158.52051 51.09668,158.69141 51.658203,159.22852 52.410156,159.25781 52.991211,159.24316 53.386719,158.8623 53.782227,158.48145 53.796875,157.76855 53.796875,157.2168 53.640625,156.87012 53.479492,156.50879 53.206055,156.34766 52.9375,156.19141 52.546875,156.19141 52.366211,156.19141 52.249023,156.2207 52.185547,156.23535 51.819336,156.33789 51.511719,156.44531 51.335937,156.45996 51.067383,156.45996 51.038086,156.15234 51.057617,156.06445 51.057617,156.02051 Z"
                     id="path61351" />
                <path
                     d="M 56.819336,153.26172 Q 56.868164,152.95898 56.912109,152.91992 56.946289,152.87109 57.141602,152.87109 H 59.661133 Q 59.822266,152.87109 59.929687,152.97852 60.032227,153.10059 60.032227,153.26172 60.032227,153.4082 59.919922,153.52051 59.8125,153.62793 59.641602,153.62793 H 57.629883 L 57.332031,155.57129 Q 57.771484,155.37109 58.230469,155.37109 58.806641,155.37109 59.22168,155.67871 59.651367,155.99121 59.880859,156.48926 60.100586,156.9873 60.100586,157.57812 60.100586,157.73926 60.09082,157.78809 60.046875,158.35449 59.832031,158.80859 59.636719,159.23828 59.30957,159.52148 59.026367,159.78027 58.601562,159.93164 58.235352,160.05859 57.800781,160.05859 57.375977,160.05859 56.960937,159.93164 56.516602,159.80957 56.169922,159.55078 55.842773,159.28223 55.769531,158.8916 55.769531,158.74023 55.857422,158.62793 55.955078,158.52051 56.082031,158.52051 56.301758,158.52051 56.448242,158.69141 57.009766,159.22852 57.761719,159.25781 58.342773,159.24316 58.738281,158.8623 59.133789,158.48145 59.148437,157.76855 59.148437,157.2168 58.992187,156.87012 58.831055,156.50879 58.557617,156.34766 58.289062,156.19141 57.898437,156.19141 57.717773,156.19141 57.600586,156.2207 57.537109,156.23535 57.170898,156.33789 56.863281,156.44531 56.6875,156.45996 56.418945,156.45996 56.389648,156.15234 56.40918,156.06445 56.40918,156.02051 Z"
                     id="path61353" />
                <path
                     d="M 62.170898,153.26172 Q 62.219727,152.95898 62.263672,152.91992 62.297852,152.87109 62.493164,152.87109 H 65.012695 Q 65.173828,152.87109 65.28125,152.97852 65.383789,153.10059 65.383789,153.26172 65.383789,153.4082 65.271484,153.52051 65.164062,153.62793 64.993164,153.62793 H 62.981445 L 62.683594,155.57129 Q 63.123047,155.37109 63.582031,155.37109 64.158203,155.37109 64.573242,155.67871 65.00293,155.99121 65.232422,156.48926 65.452148,156.9873 65.452148,157.57812 65.452148,157.73926 65.442383,157.78809 65.398437,158.35449 65.183594,158.80859 64.988281,159.23828 64.661133,159.52148 64.37793,159.78027 63.953125,159.93164 63.586914,160.05859 63.152344,160.05859 62.727539,160.05859 62.3125,159.93164 61.868164,159.80957 61.521484,159.55078 61.194336,159.28223 61.121094,158.8916 61.121094,158.74023 61.208984,158.62793 61.306641,158.52051 61.433594,158.52051 61.65332,158.52051 61.799805,158.69141 62.361328,159.22852 63.113281,159.25781 63.694336,159.24316 64.089844,158.8623 64.485352,158.48145 64.5,157.76855 64.5,157.2168 64.34375,156.87012 64.182617,156.50879 63.90918,156.34766 63.640625,156.19141 63.25,156.19141 63.069336,156.19141 62.952148,156.2207 62.888672,156.23535 62.522461,156.33789 62.214844,156.44531 62.039062,156.45996 61.770508,156.45996 61.741211,156.15234 61.760742,156.06445 61.760742,156.02051 Z"
                     id="path61355" />
            </g>
        </g>
        <g
             id="g25368">
            <path
                 id="path2249"
                 style="fill:#1a1a1a;fill-opacity:1;stroke:white;stroke-width:2;stroke-linecap:square;stroke-opacity:0"
                 d="M 238,116 V 118 H 254 C 254,118 254.16605,124.6708 254,128 253.3325,141.3832 250,168 250,168 H 302 C 302,168 298.6675,141.3832 298,128 297.83395,124.6708 298,118 298,118 H 314 V 116 Z"
                 sodipodi:nodetypes="cccsccscccc"
                 transform="translate(-186,4)" />
            <path
                 id="rect16749"
                 style="fill:#d4aa00;fill-opacity:1;stroke:none;stroke-width:2;stroke-linecap:square;stroke-opacity:1"
                 d="M 248.0625,132 C 248.08088,134.03364 248.07989,136.39832 248,138 247.91078,139.78892 247.76974,141.83336 247.59961,144 H 292.40039 C 292.23026,141.83336 292.08922,139.78892 292,138 291.92011,136.39832 291.91912,134.03364 291.9375,132 Z"
                 transform="translate(-180,-6)" />
            <path
                 id="path8545"
                 style="fill:url(#linearGradient8553);fill-opacity:1;stroke:white;stroke-width:2;stroke-linecap:square;stroke-opacity:0"
                 d="M 254,118 C 254,118 254.16605,124.6708 254,128 253.3325,141.3832 250,168 250,168 H 276 V 118 Z"
                 sodipodi:nodetypes="cscccc"
                 transform="translate(-186,4)" />
            <path
                 id="path10713"
                 style="fill:url(#linearGradient10715);fill-opacity:1;stroke:white;stroke-width:2;stroke-linecap:square;stroke-opacity:0"
                 d="M 254,118 C 254,118 254.16605,124.6708 254,128 253.3325,141.3832 250,168 250,168 H 276 V 118 Z"
                 sodipodi:nodetypes="cscccc"
                 transform="matrix(-1,0,0,1,366,4)" />
            <rect
                 style="fill:url(#linearGradient13114);fill-opacity:1;stroke:none;stroke-width:2;stroke-linecap:square;stroke-opacity:1"
                 id="rect12974"
                 width="76"
                 height="2"
                 x="232"
                 y="126"
                 transform="translate(-180,-6)" />
        </g>
        <g
             id="g17186"
             transform="translate(0,-80)">
            <rect
                 style="fill:black;stroke:none;stroke-width:1;stroke-miterlimit:4;stroke-dasharray:none"
                 id="rect10537"
                 width="86"
                 height="4"
                 x="6"
                 y="90"
                 transform="rotate(-45,189.97919,135.41422)" />
            <rect
                 style="fill:#d4aa00;stroke:none;stroke-width:1;stroke-miterlimit:4;stroke-dasharray:none"
                 id="rect10845"
                 width="30"
                 height="3.9999993"
                 x="62"
                 y="90"
                 transform="rotate(-45,189.97919,135.41422)" />
            <rect
                 style="fill:url(#linearGradient10957);fill-opacity:1;stroke:none;stroke-width:1;stroke-miterlimit:4;stroke-dasharray:none"
                 id="rect10949"
                 width="86"
                 height="4"
                 x="6"
                 y="90"
                 transform="rotate(-45,189.97919,135.41422)" />
        </g>
        <path
             id="path3098"
             style="fill:url(#radialGradient7684);fill-opacity:1;stroke-width:2;stroke-linecap:square"
             d="M 90,77 89.125,91.886719 77.978516,81.978516 87.886719,93.125 73,94 87.884766,94.876953 77.978516,106.02148 89.111328,95.900391 90,111 90.714844,95.972656 102.02148,106.02148 92.113281,94.875 107,94 92.162109,93.126953 93.535156,91.878906 102.02148,81.978516 90.912109,91.853516 91,90 Z" />
        <path
             id="path3219"
             style="fill:url(#radialGradient6874);fill-opacity:1;stroke-width:2;stroke-linecap:square"
             d="M 87.320312,87.533203 88.626953,92.625 83.533203,91.320312 88.058594,94 83.533203,96.679688 88.626953,95.375 87.320312,100.4668 90,95.943359 92.679688,100.4668 91.373047,95.375 96.466797,96.679688 91.941406,94 96.466797,91.320312 91.373047,92.625 92.679688,87.533203 90,92.056641 Z" />
    </g>
</svg>
