<?xml version="1.0" encoding="UTF-8" standalone="no"?>
<!-- Created with Inkscape (http://www.inkscape.org/) -->

<svg
     width="180"
     height="180"
     viewBox="0 0 180 180"
     version="1.1"
     id="svg5"
     inkscape:version="1.1.1 (3bf5ae0d25, 2021-09-20)"
     sodipodi:docname="wizard_180x180.svg"
     xmlns:inkscape="http://www.inkscape.org/namespaces/inkscape"
     xmlns:sodipodi="http://sodipodi.sourceforge.net/DTD/sodipodi-0.dtd"
     xmlns="http://www.w3.org/2000/svg"
     xmlns:svg="http://www.w3.org/2000/svg">
    <sodipodi:namedview
         id="namedview7"
         pagecolor="#505050"
         bordercolor="white"
         borderopacity="1"
         inkscape:pageshadow="0"
         inkscape:pageopacity="0"
         inkscape:pagecheckerboard="1"
         inkscape:document-units="px"
         showgrid="true"
         inkscape:zoom="2.25"
         inkscape:cx="152.66667"
         inkscape:cy="98"
         inkscape:window-width="1366"
         inkscape:window-height="705"
         inkscape:window-x="-8"
         inkscape:window-y="-8"
         inkscape:window-maximized="1"
         inkscape:current-layer="layer1">
        <inkscape:grid
             type="xygrid"
             id="grid824"
             empspacing="4" />
    </sodipodi:namedview>
    <defs
         id="defs2" />
    <g
         inkscape:label="Camada 1"
         inkscape:groupmode="layer"
         id="layer1">
        <path
             style="fill:white;fill-opacity:0;stroke:white;stroke-width:2;stroke-linecap:square"
             d="M 14,142 C 14,142 14.254644,144.25464 15,145 15.745356,145.74536 18,146 18,146 L 85,77 83,75 Z"
             id="path859"
             sodipodi:nodetypes="cacccc"
             transform="translate(39,-21)" />
        <path
             style="fill:white;fill-opacity:0;stroke:white;stroke-width:2;stroke-linecap:square"
             d="M 0,184 29,161 C 29,161 31.303219,159.23065 32,158 32.67715,156.80402 33,154 33,154 L 32,141 C 32,141 30.172571,138.73633 29,139 27.103701,139.42641 26,144 26,144 V 154 L 19,159 C 19,159 17.044766,160.13991 16,160 14.808784,159.84047 13,158 13,158 L 10,151 C 10,151 9.1688469,149.04048 9,148 8.8398178,147.01291 9,145 9,145 L 12,133 29,128 C 29,128 30.92532,126.19953 31,125 31.046315,124.25608 30,123 30,123 L 12,126 C 12,126 9.8376944,126.36017 9,127 8.0448814,127.72952 7,130 7,130 L 3,143 6,122 23,111 C 23,111 25,109.20185 25,108 25,106.79815 23,105 23,105 L 4,116 C 4,116 2.495664,117.198 2,118 1.4458307,118.89666 1,121 1,121 L -5,141 -2,117 9,106 C 9,106 10.342091,103.99704 10,103 9.6099558,101.8632 7,101 7,101 L -4,112 C -4,112 -5.4719653,113.92036 -6,115 -6.4631171,115.94691 -7,118 -7,118 L -12,140 V 125 L -8,114 C -8,114 -7.4152897,111.81124 -8,111 -8.6163388,110.14488 -11,110 -11,110 L -15,120 C -15,120 -15.729448,121.98122 -16,123 -16.436252,124.64273 -17,128 -17,128 L -20,164"
             id="path1057"
             sodipodi:nodetypes="ccaccacccaccacccacccccccaccaccccaccaccccaccacc"
             transform="translate(40,-24)" />
        <circle
             style="fill:white;fill-opacity:0;stroke:white;stroke-width:2;stroke-linecap:square"
             id="path4701"
             cx="90"
             cy="90"
             r="86" />
        <circle
             style="fill:white;fill-opacity:0;stroke:white;stroke-width:2;stroke-linecap:square"
             id="path28557"
             cx="132"
             cy="48"
             r="4" />
        <path
             style="fill:white;fill-opacity:0;stroke:white;stroke-width:2;stroke-linecap:square"
             d="M 132,44 V 32"
             id="path28836" />
        <path
             style="fill:white;fill-opacity:0;stroke:white;stroke-width:2;stroke-linecap:square"
             d="M 132,52 V 64"
             id="path28838" />
        <path
             style="fill:white;fill-opacity:0;stroke:white;stroke-width:2;stroke-linecap:square"
             d="M 132,44 V 32"
             id="path28920"
             transform="rotate(90,132,48)" />
        <path
             style="fill:white;fill-opacity:0;stroke:white;stroke-width:2;stroke-linecap:square"
             d="M 132,52 V 64"
             id="path28922"
             transform="rotate(90,132,48)" />
        <path
             style="fill:white;fill-opacity:0;stroke:white;stroke-width:2;stroke-linecap:square"
             d="M 132,44 V 32"
             id="path28924"
             transform="rotate(90,132,48)" />
        <path
             style="fill:white;fill-opacity:0;stroke:white;stroke-width:2;stroke-linecap:square"
             d="M 132,52 V 64"
             id="path28926"
             transform="rotate(90,132,48)" />
    </g>
</svg>
